<svg width="310" height="310" viewBox="0 0 310 310" fill="none" xmlns="http://www.w3.org/2000/svg">
<path d="M310 155C310 240.604 240.604 310 155 310C69.3959 310 0 240.604 0 155C0 69.3959 69.3959 0 155 0C240.604 0 310 69.3959 310 155Z" fill="#99DC55"/>
<path d="M117 274V271.923L119.894 271.093C122.513 270.401 124.304 269.224 125.269 267.562C126.372 265.901 126.992 263.686 127.13 260.917V195.919C127.13 192.874 126.647 190.659 125.683 189.274C124.718 187.751 122.857 186.713 120.101 186.159L117 185.329V183.252L152.351 171.208L154.418 173.284L156.072 187.405C160.62 182.837 165.788 178.96 171.577 175.776C177.503 172.592 183.636 171 189.976 171C196.591 171 201.897 172.384 205.894 175.153C209.891 177.784 212.923 181.937 214.99 187.613C220.365 182.491 226.154 178.476 232.356 175.569C238.696 172.523 244.829 171 250.755 171C260.54 171 267.707 173.353 272.255 178.06C276.941 182.767 279.284 190.174 279.284 200.28V261.125C279.284 266.524 281.764 269.916 286.726 271.3L289 271.923V274H241.245V271.923L243.312 271.3C245.931 270.47 247.723 269.224 248.688 267.562C249.79 265.901 250.341 263.686 250.341 260.917V197.373C250.341 191.558 249.308 187.613 247.24 185.536C245.173 183.321 241.865 182.214 237.317 182.214C233.734 182.214 230.22 183.044 226.774 184.706C223.466 186.229 219.952 188.582 216.231 191.766C216.92 193.981 217.333 196.404 217.471 199.034C217.747 201.665 217.885 204.433 217.885 207.341V261.125C218.022 266.524 220.503 269.916 225.327 271.3L227.188 271.923V274H179.226V271.923L182.12 271.093C184.739 270.262 186.53 269.085 187.495 267.562C188.598 265.901 189.149 263.686 189.149 260.917V197.581C189.149 192.043 188.115 188.097 186.048 185.744C184.119 183.39 180.742 182.214 175.918 182.214C172.748 182.214 169.579 183.044 166.409 184.706C163.239 186.229 159.931 188.513 156.486 191.558V261.125C156.486 266.524 158.897 269.916 163.721 271.3L165.582 271.923V274H117Z" fill="black"/>
</svg>
