<?xml version="1.0" encoding="utf-8"?>
<!-- Generator: Adobe Illustrator 24.2.1, SVG Export Plug-In . SVG Version: 6.00 Build 0)  -->
<svg version="1.1" id="Layer_1" xmlns="http://www.w3.org/2000/svg" xmlns:xlink="http://www.w3.org/1999/xlink" x="0px" y="0px"
	 viewBox="0 0 45 45" style="enable-background:new 0 0 45 45;" xml:space="preserve">
<style type="text/css">
	.st0{fill:#4D4D4D;}
</style>
<g>
	<path class="st0" d="M44.9,20.8c-0.1-2.3,0-4.7,0-7c0-1.5,0-3,0-4.5c-0.1-1.2,0.1-2.7-0.2-3.9c-0.3-1.2-1.2-1.2-2.3-1.3
		c-2.8-0.1-5.6,0-8.3,0c-6.2,0-12.4-0.1-18.6-0.1c-3.3,0-6.5,0.1-9.7,0.3C4.6,4.5,2.6,4.3,1.7,5.1C1,5.6,1,6.5,0.8,7.2
		c-0.3,1.7-0.3,3.5-0.4,5.2C0.3,16.2,0.3,20,0.1,23.8c-0.2,3.1-0.1,6.1,0,9.2c0,1.7-0.5,4.5,1,5.8c1.5,1.3,4.7,0.8,6.4,0.8
		c3.3,0.1,6.5,0.2,9.8,0.2c6.1,0.1,12.2-0.1,18.4,0.1c2.3,0.1,4.9,0,7.2-0.4c1.4-0.2,1.8-1.1,1.9-2.4C45.4,31.7,45.1,26.2,44.9,20.8
		z M4,5.9c0.6-0.1,1.2-0.1,1.7-0.1c2.4-0.2,4.8-0.3,7.2-0.3c5.1,0,10.3,0,15.4,0c2.2,0,4.4,0,6.6,0c2.3,0,4.9-0.3,7.2,0
		c1.1,0.1,1.1,0.2,1.3,1.3c0.2,1,0.1,2.2,0.2,3.2c0,0.2,0,0.3,0,0.5C29.7,10.1,15.8,10,1.9,10.5C1.9,9.7,2,8.9,2.1,8.1
		C2.3,6.6,2.5,6,4,5.9z M43.7,31c-0.1,1.9,0,3.8-0.2,5.6c-0.1,1.4-0.7,1.3-1.9,1.5c-1.3,0.2-2.6,0.4-3.9,0.4
		c-4.8,0.1-9.6-0.1-14.5-0.1c-5.7,0-11.4-0.2-17-0.3C4.4,38,1.7,38.3,1.5,36c-0.1-1.3,0-2.6-0.1-3.9c-0.1-2.8-0.2-5.5,0-8.3
		c0.3-4.1,0.1-8.2,0.3-12.3c13.9-0.4,27.8-0.4,41.8,0.1c0,1.9-0.1,3.9-0.1,5.8C43.5,21.9,43.8,26.4,43.7,31z"/>
	<path class="st0" d="M5.2,9.6C6.1,9.5,6.9,9,6.8,8.1C6.7,7.2,6.1,6.6,5.2,6.6c-0.9,0-1.5,0.8-1.6,1.6C3.4,9.1,4.3,9.7,5.2,9.6z
		 M4.6,8.2C4.7,8,4.9,7.6,5.2,7.6c0.3,0,0.5,0.1,0.5,0.4c0.1,0.4-0.1,0.5-0.5,0.6c-0.2,0-0.3,0-0.5,0C4.5,8.5,4.6,8.4,4.6,8.2z"/>
	<path class="st0" d="M9.5,9.6c1,0.1,1.6-0.6,1.7-1.5c0.1-0.9-0.6-1.6-1.5-1.6C8.9,6.4,8,7,8,7.9C7.9,8.8,8.6,9.5,9.5,9.6z M9,7.9
		c0.1-0.3,0.5-0.4,0.7-0.4c0.3,0,0.6,0.2,0.5,0.5c-0.1,0.4-0.3,0.6-0.7,0.6C9.2,8.5,8.9,8.2,9,7.9z"/>
	<path class="st0" d="M14.2,9.5c0.8-0.1,1.6-0.8,1.6-1.6c0-0.9-0.8-1.6-1.7-1.6c-0.9,0-1.6,0.8-1.7,1.7C12.3,9,13.3,9.6,14.2,9.5z
		 M14.1,7.3c0.7,0,0.9,1,0.1,1.2c-0.3,0.1-0.7-0.1-0.8-0.4C13.4,7.7,13.7,7.3,14.1,7.3z"/>
	<path class="st0" d="M16.9,16.1c-1.4-1.2-3.4-0.2-4.7,0.7c-2.4,1.7-4.4,3.7-6.6,5.6c-3.4,3,0.7,6.3,3.1,8.1
		c1.6,1.2,3.6,2.9,5.5,3.5c1.3,0.4,3.3-0.1,3.4-1.8c0.1-1.6-2.4-3.2-3.5-4.2c-0.7-0.6-1.4-1.1-2.1-1.6c-0.3-0.2-0.6-0.4-1-0.6
		c-0.7-0.5-1-0.4-0.6-1.1C11.6,22.9,20.1,18.8,16.9,16.1z M9.4,25.8c0.8,0.9,2.4,1.6,3.4,2.4c0.8,0.6,1.4,1.3,2.1,2
		c0.3,0.3,1.1,0.8,1.3,1.2c0.6,1.9-1,1.8-1.9,1.5c0.1-0.1,0.2-0.1,0.3-0.2c0.2-0.2,0.3-0.4,0.2-0.7c-0.1-0.2-0.5-0.4-0.7-0.2
		c-0.2,0.1-0.4,0.3-0.6,0.4c-0.1,0.1-0.1,0.1-0.2,0.2c-0.2-0.1-0.4-0.2-0.6-0.3c0.1-0.1,0.2-0.1,0.2-0.2c0.6-0.3,0.1-1.2-0.5-0.9
		c-0.2,0.1-0.4,0.3-0.6,0.5c-0.3-0.2-0.5-0.4-0.8-0.5c0.1-0.1,0.3-0.2,0.4-0.2c0.6-0.3,0.1-1.2-0.5-0.9c-0.3,0.1-0.5,0.3-0.8,0.4
		c-0.2-0.1-0.3-0.3-0.5-0.4c0.1-0.1,0.2-0.1,0.3-0.2c0.6-0.3,0.1-1.2-0.5-0.9c-0.2,0.1-0.4,0.3-0.6,0.4c-0.2-0.2-0.5-0.4-0.7-0.6
		c0.1-0.1,0.3-0.2,0.4-0.3c0.3-0.1,0.3-0.5,0.2-0.7c-0.2-0.3-0.5-0.3-0.7-0.2c-0.3,0.1-0.5,0.3-0.7,0.5c-0.2-0.2-0.4-0.3-0.6-0.5
		c0.2-0.1,0.3-0.2,0.5-0.3c0.5-0.4,0-1.3-0.5-0.9c-0.2,0.1-0.4,0.3-0.6,0.4c-0.2-0.3-0.4-0.7-0.5-1c0.2,0,0.3,0,0.5,0
		c0.7,0,0.7-1,0-1c-0.2,0-0.4,0-0.5,0c0.1-0.3,0.2-0.6,0.5-1C6,23.8,6.1,24,6.4,24.2c0.2,0.2,0.6,0,0.7-0.2c0.2-0.3,0-0.5-0.2-0.7
		c0.1,0.1-0.1-0.1-0.1-0.1c-0.1-0.1-0.1-0.1-0.2-0.2c0,0-0.1-0.1-0.1-0.1c0.2-0.1,0.3-0.3,0.5-0.4c0.2,0.2,0.4,0.4,0.6,0.6
		c0.2,0.2,0.5,0.2,0.7,0c0.2-0.2,0.2-0.5,0-0.7C8.1,22.2,8,22,7.8,21.8c0.2-0.2,0.5-0.4,0.7-0.7c0.2,0.2,0.4,0.3,0.6,0.5
		c0.5,0.5,1.2-0.3,0.7-0.7c-0.2-0.2-0.4-0.3-0.5-0.5c0.3-0.2,0.6-0.5,0.9-0.7c0.2,0.2,0.4,0.4,0.6,0.6c0.4,0.5,1.2-0.2,0.7-0.7
		c-0.2-0.2-0.4-0.3-0.5-0.5c0.1-0.1,0.3-0.2,0.4-0.3c0.2-0.1,0.4-0.3,0.6-0.4c0.1,0.1,0.2,0.3,0.3,0.4c0.2,0.2,0.4,0.3,0.7,0.2
		c0.2-0.1,0.3-0.5,0.2-0.7c-0.1-0.2-0.2-0.3-0.4-0.5c0.2-0.2,0.5-0.3,0.7-0.5c0,0,0,0,0,0.1c0.2,0.1,0.3,0.3,0.5,0.4
		c0.5,0.5,1.2-0.3,0.7-0.7c-0.1-0.1-0.2-0.2-0.3-0.3c0.6-0.2,1.2-0.2,1.6,0.5c0.5,1,0,1.2-0.7,1.9c-1.7,1.7-3.9,2.9-5.6,4.6
		C9,24.5,8.8,25,9.4,25.8z"/>
	<path class="st0" d="M36.4,19.2c-1.6-1.2-3.6-2.9-5.5-3.5c-1.3-0.4-3.3,0.1-3.4,1.8c-0.1,1.6,2.4,3.2,3.5,4.2
		c0.7,0.6,1.4,1.1,2.1,1.6c0.3,0.2,0.6,0.4,1,0.6c0.7,0.5,1,0.4,0.6,1.1c-1.1,1.7-9.7,5.8-6.4,8.5c1.4,1.2,3.4,0.2,4.7-0.7
		c2.4-1.7,4.4-3.7,6.6-5.6C43,24.3,38.8,21,36.4,19.2z M38.8,26.5c-1.7,1.4-3.2,3-5,4.3c-0.8,0.6-1.5,1.3-2.4,1.7
		c-0.9,0.5-1.7,0.8-2.3-0.2c-0.2-0.4-0.2-0.7-0.1-1c0.2,0.2,0.5,0.4,0.8,0.6c0.2,0.2,0.6,0,0.7-0.2c0.2-0.3,0-0.5-0.2-0.7
		c-0.2-0.2-0.4-0.3-0.6-0.5c0.1-0.1,0.1-0.1,0.2-0.2c0.2-0.2,0.3-0.3,0.5-0.4c0.2,0.2,0.4,0.4,0.6,0.6c0.2,0.2,0.5,0.2,0.7,0
		c0.2-0.2,0.2-0.5,0-0.7c-0.2-0.2-0.4-0.4-0.6-0.6c0.2-0.2,0.5-0.4,0.8-0.6c0.2,0.3,0.4,0.5,0.7,0.8c0.5,0.5,1.2-0.3,0.7-0.7
		c-0.2-0.2-0.4-0.4-0.6-0.7c0.2-0.2,0.4-0.3,0.6-0.5c0.2,0.2,0.4,0.4,0.5,0.6c0.2,0.2,0.5,0.2,0.7,0c0.2-0.2,0.2-0.5,0-0.7
		c-0.1-0.2-0.3-0.3-0.4-0.5c0.3-0.2,0.5-0.4,0.8-0.7c0.1,0.1,0.3,0.2,0.4,0.3c0.5,0.5,1.2-0.2,0.7-0.7c-0.1-0.1-0.2-0.2-0.3-0.3
		c0.2-0.2,0.3-0.4,0.4-0.6c0.2,0,0.4,0,0.6,0c0.3,0,0.5-0.2,0.5-0.5c0-0.3-0.2-0.5-0.5-0.5c-0.3,0-0.6,0-0.9-0.1c0,0,0,0,0,0
		c-0.1-0.2-0.3-0.3-0.5-0.5c0.2-0.1,0.3-0.2,0.5-0.2c0.3-0.1,0.3-0.5,0.2-0.7c-0.2-0.3-0.5-0.3-0.7-0.2c-0.3,0.1-0.6,0.3-0.9,0.4
		c-0.2-0.1-0.3-0.2-0.5-0.3c0.1-0.1,0.3-0.1,0.4-0.2c0.2-0.1,0.3-0.5,0.2-0.7c-0.1-0.3-0.5-0.3-0.7-0.2c-0.3,0.1-0.6,0.3-0.8,0.4
		c0,0,0,0-0.1,0.1c-0.2-0.1-0.3-0.2-0.5-0.3c-0.1-0.1-0.1-0.1-0.2-0.2c0.2-0.1,0.4-0.2,0.6-0.3c0.3-0.1,0.3-0.5,0.2-0.7
		c-0.2-0.3-0.5-0.3-0.7-0.2c-0.3,0.1-0.6,0.3-0.9,0.5c-0.2-0.2-0.4-0.4-0.6-0.6c0.1-0.1,0.2-0.1,0.3-0.2c0.3-0.1,0.4-0.3,0.4-0.6
		c-0.1-0.2-0.4-0.5-0.6-0.4c-0.3,0.1-0.6,0.3-0.8,0.5c-0.1-0.1-0.3-0.2-0.5-0.4c0.1-0.1,0.3-0.2,0.4-0.3c0.6-0.3,0.1-1.2-0.5-0.9
		c-0.2,0.1-0.3,0.2-0.5,0.4c-0.5-1.8,1.2-1.6,2.1-1.2c1.8,0.7,3.6,2.2,5.2,3.4C38,21.6,41.6,24.1,38.8,26.5z"/>
	<path class="st0" d="M23.9,15.5c-1.5,0-1.9,1.3-2.4,2.6c-0.9,2.8-1.6,5.7-2.2,8.6c-0.3,1.5-2.2,8,1.3,7.6c1.4-0.2,2.2-1.6,2.6-2.7
		c0.9-2.4,1.4-5.1,1.9-7.6c0.3-1.2,0.5-2.5,0.7-3.7c0.2-0.8,0.6-1.9,0.5-2.8C26.2,16.1,25.1,15.6,23.9,15.5z M23.8,25.1
		c-0.3,1.1-0.5,2.2-0.8,3.3c-0.4,1.4-0.7,4.2-2.4,4.2c-1,0-1-0.1-1-0.7c0.1,0,0.2,0.1,0.4,0.1c0.3,0.1,0.6-0.1,0.6-0.4
		c0.1-0.3-0.1-0.5-0.4-0.6c-0.2-0.1-0.4-0.1-0.6-0.1c0-0.2,0-0.4,0.1-0.6c0.2,0,0.5,0.1,0.7,0.1c0.7,0,0.7-1,0-1
		c-0.2,0-0.4,0-0.5-0.1c0-0.1,0-0.2,0.1-0.3c0-0.1,0-0.1,0-0.2c0.2,0,0.4,0.1,0.7,0.1c0.6,0.2,0.9-0.8,0.3-1
		c-0.3-0.1-0.5-0.1-0.8-0.1c0.1-0.3,0.1-0.6,0.2-0.9c0.3,0,0.6,0.1,0.9,0.2c0.3,0.1,0.6-0.1,0.6-0.4c0.1-0.3-0.1-0.5-0.4-0.6
		c-0.3-0.1-0.6-0.2-0.9-0.2c0-0.2,0.1-0.4,0.1-0.7c0.2,0.1,0.5,0.1,0.7,0.2c0.6,0.1,0.9-0.8,0.3-1c-0.3-0.1-0.5-0.1-0.8-0.2
		c0-0.2,0.1-0.5,0.1-0.7c0.2,0,0.3,0.1,0.5,0.1c0.6,0.2,0.9-0.8,0.3-1c-0.2,0-0.4-0.1-0.6-0.1c0-0.1,0.1-0.3,0.1-0.4
		c0.3,0.1,0.6,0.1,0.9,0.2c0.3,0.1,0.6-0.1,0.6-0.4c0.1-0.3-0.1-0.6-0.4-0.6c-0.3-0.1-0.6-0.1-0.9-0.2c0-0.2,0.1-0.4,0.2-0.6
		c0.2,0,0.4,0.1,0.6,0.1c0.6,0.2,0.9-0.8,0.3-1c-0.2-0.1-0.4-0.1-0.6-0.1c0-0.1,0.1-0.3,0.1-0.4c0.2,0,0.4,0.1,0.5,0.1
		c0.3,0.1,0.6-0.1,0.6-0.4c0.1-0.3-0.1-0.5-0.4-0.6c-0.1-0.1-0.3-0.1-0.5-0.1c0.1-0.2,0.1-0.3,0.2-0.4c0.2,0.1,0.3,0.1,0.5,0.2
		c0.3,0,0.6-0.1,0.6-0.4c0.1-0.2-0.1-0.6-0.4-0.6c-0.1,0-0.1,0-0.2,0c0.2-0.2,0.4-0.3,0.6-0.3C26.3,16.6,24.1,23.9,23.8,25.1z"/>
</g>
</svg>
