<?xml version="1.0" encoding="utf-8"?>
<!-- Generator: Adobe Illustrator 24.2.1, SVG Export Plug-In . SVG Version: 6.00 Build 0)  -->
<svg version="1.1" id="Layer_1" xmlns="http://www.w3.org/2000/svg" xmlns:xlink="http://www.w3.org/1999/xlink" x="0px" y="0px"
	 viewBox="0 0 45 45" style="enable-background:new 0 0 45 45;" xml:space="preserve">
<style type="text/css">
	.st0{fill:#4D4D4D;}
</style>
<g>
	<path class="st0" d="M44.2,2.4C36.9,5.1,30,8.9,22.8,12.1c-7.6,3.5-15,7.3-22.6,11c-0.5,0.2-0.4,1.1,0.2,1.2
		c4.9,0.7,9.8,1.8,14.6,2.9c0.1,5,0,9.9,0,14.9c0,0.7,0.8,0.8,1.2,0.3c2.6-3.7,5.2-7.4,7.9-10.9c3.8,2.3,7.7,4.6,11.3,7.2
		c0.3,0.2,0.9,0,0.9-0.4c1.1-5.9,2.3-11.7,4-17.5c1.7-5.8,3.3-11.7,4.5-17.6C45.1,2.7,44.7,2.2,44.2,2.4z M19.4,27.4
		c-0.2,0.1-0.3,0.3-0.3,0.5c-0.2,0.5-0.4,1-0.6,1.7c-0.7,3-1.3,6.1-2.1,9.1c0-4,0.1-8,0-11.9c7.5-6.6,15.3-13.1,23.2-19.3
		c-4.7,4.6-9.4,9.3-14.1,13.9c-1.5,1.4-2.9,2.9-4.4,4.3C20.3,26.3,19.8,26.8,19.4,27.4z M41.1,5c-8.6,6.8-17.1,13.8-25.4,21
		c-4.3-1-8.6-2-13-2.7c6.7-3.3,13.3-6.7,20.1-9.8C28.9,10.7,34.9,7.6,41.1,5z M17.3,38.7c0.7-2.6,1.2-5.4,1.9-8
		c0.2-0.7,0.3-1.3,0.5-1.9c1.1,0.7,2.2,1.4,3.4,2.1C21.1,33.4,19.2,36,17.3,38.7z M39.2,20.4c-1.6,5.5-2.7,11-3.8,16.6
		c-4.8-3.4-10-6.3-15-9.4c0,0,0.1-0.1,0.1-0.1c0.6-0.7,1.3-1.3,2-1.9c1.5-1.4,2.9-2.9,4.4-4.3C32.4,15.8,37.8,10.4,43.3,5
		C42.1,10.2,40.7,15.3,39.2,20.4z"/>
	<path class="st0" d="M11.4,23c1.5-0.8,3-1.7,4.6-2.5c0.5-0.3,0.1-1.1-0.5-0.8c-1.5,0.8-3,1.7-4.6,2.5C10.4,22.5,10.8,23.3,11.4,23z
		"/>
	<path class="st0" d="M15.7,21.7c-0.7,0.4-1.4,0.7-2.1,1.1c-0.5,0.3-0.1,1.1,0.5,0.8c0.7-0.4,1.4-0.7,2.1-1.1
		C16.7,22.3,16.2,21.4,15.7,21.7z"/>
</g>
</svg>
