<?xml version="1.0" encoding="utf-8"?>
<!-- Generator: Adobe Illustrator 24.2.1, SVG Export Plug-In . SVG Version: 6.00 Build 0)  -->
<svg version="1.1" id="Layer_1" xmlns="http://www.w3.org/2000/svg" xmlns:xlink="http://www.w3.org/1999/xlink" x="0px" y="0px"
	 viewBox="0 0 45 45" style="enable-background:new 0 0 45 45;" xml:space="preserve">
<style type="text/css">
	.st0{fill:#4D4D4D;}
</style>
<g>
	<path class="st0" d="M41.3,2.8c-2.5-2.3-4.8-3-8-1.7c-2.8,1.2-5,3.7-7.2,5.7c-3.3,3-6.5,6.2-9.7,9.4c-3,3.1-6,6.3-9,9.5
		c-1.3,1.4-2.8,2.9-3.9,4.5c0,0-0.1,0.1-0.1,0.2c0,0.1-0.1,0.1-0.1,0.2c-0.8,1.6-1.1,3.5-1.5,5.2c-0.6,2.7-1.1,5.4-1.4,8.1
		c0,0.5,0.5,0.8,0.9,0.7c4.3-0.7,8.5-1.6,12.8-2.4c1.7-0.3,2.5-1.5,3.7-2.8c2-2.1,4.1-4.2,6.1-6.3c3.8-3.9,7.5-7.9,11.4-11.7
		c3.2-3.2,7.6-6.6,9.1-11C45.4,7.1,43.5,4.9,41.3,2.8z M36.7,17.9c-1.7-1.4-3.1-3.1-4.7-4.8c-1.7-1.8-3.4-3.4-5.2-5
		c0.3-0.3,0.6-0.6,1-0.9c3.3,3.2,6.6,6.5,9.8,9.9C37.3,17.4,37,17.6,36.7,17.9z M32.8,21.7c-3.1-3.5-6.7-6.5-10.2-9.6
		c0.3-0.3,0.6-0.6,0.9-0.8c3.7,2.7,6.9,6.3,10.1,9.6c-0.1,0.1-0.3,0.2-0.4,0.4C33.1,21.4,32.9,21.6,32.8,21.7z M13.9,35.7
		C13.9,35.7,13.9,35.7,13.9,35.7c-1.4,0.1-2.8,0.1-4.2,0.1c0-1.1,0-2.8-0.4-3.7c2.5-2.5,4.7-5.2,7.1-7.7c2.7-2.9,5.6-5.6,8.4-8.5
		c1.5,1.3,2.9,2.6,4.3,3.9C24.1,25.3,19.1,30.6,13.9,35.7z M26.1,8.8c0.3,0.2,0.5,0.5,0.8,0.7c-0.5,0.6-1.1,1.2-1.6,1.7
		c-0.3-0.2-0.6-0.5-0.9-0.7C24.8,10,25.4,9.4,26.1,8.8z M29.6,15.3c0.6-0.5,1.1-0.9,1.6-1.5c0,0,0,0,0.1,0.1c0.3,0.3,0.6,0.7,0.9,1
		c-0.5,0.5-1,1-1.5,1.5C30.3,16,30,15.7,29.6,15.3z M28.8,14.5c-0.3-0.3-0.6-0.6-0.9-0.9c0.5-0.5,1-1.1,1.5-1.6c0.3,0.3,0.7,0.7,1,1
		C30,13.6,29.4,14.1,28.8,14.5z M27.1,12.9c-0.4-0.3-0.7-0.6-1.1-1c0.6-0.5,1.1-1.1,1.6-1.7c0.4,0.3,0.7,0.7,1.1,1
		C28.2,11.8,27.6,12.4,27.1,12.9z M31.4,17.2c0.5-0.4,1-0.9,1.5-1.5c0.3,0.4,0.6,0.7,1,1.1c-0.5,0.5-1,1-1.4,1.5
		C32.2,17.9,31.8,17.5,31.4,17.2z M13.3,21.6c2.7-2.9,5.5-5.7,8.3-8.4c0.8,0.7,1.6,1.4,2.4,2.1c-2.8,2.8-5.6,5.5-8.3,8.4
		c-2.4,2.6-4.6,5.3-7.1,7.7c-0.4-0.1-1-0.1-1.3-0.2c-0.8-0.1-1.6-0.3-2.4-0.4C7.2,27.5,10.5,24.5,13.3,21.6z M7.7,42
		c-1.2-1.5-3-3.3-4.8-4.8c0.1-0.4,0.2-0.8,0.3-1.2c0.3-1.4,0.6-3,1.1-4.3c1.2,0.1,3,0.1,4,0.7c-0.4-0.1,0,0.7,0.1,1.3
		c0.1,0.9,0.2,1.8,0.3,2.7c0,0.3,0.2,0.6,0.5,0.5c1,0,2.1,0,3.1-0.1c1.1-0.1,1.1-0.3,1.2,0.8c0.1,1,0.2,2,0.3,3
		c-0.1,0-0.3,0.1-0.4,0.1C11.5,41.3,9.6,41.7,7.7,42z M23.4,31.4c-1.7,1.8-3.5,3.6-5.2,5.4c-1.1,1.1-2.1,2.5-3.3,3.3
		c-0.1-1.2-0.2-2.3-0.4-3.5c5.3-5.2,10.3-10.6,15.3-16.1c0.7,0.7,1.4,1.4,2,2.1C29,25.6,26.2,28.5,23.4,31.4z M34.4,20.2
		c-0.4-0.4-0.7-0.7-1.1-1.1c0.4-0.5,0.9-1,1.4-1.5c0.4,0.4,0.8,0.8,1.3,1.1C35.4,19.2,34.9,19.7,34.4,20.2z M42.5,10.8
		c-0.9,1.9-2.3,3.6-3.9,5.2c-3.2-3.3-6.4-6.6-9.7-9.8C29,6.1,29.1,6.1,29.1,6c2.2-2,5-5,8.3-4.1c1.5,0.4,2.8,1.8,3.8,2.9
		C43,6.7,43.8,8.3,42.5,10.8z"/>
	<path class="st0" d="M33.5,4.9c-0.1-0.7-1.2-0.4-1.1,0.3c0.2,1,0.4,2,0.8,2.9c0.2,0.7,1.3,0.4,1.1-0.3C33.9,6.8,33.7,5.9,33.5,4.9z
		"/>
	<path class="st0" d="M35.4,4.5c-0.2-0.7-1.3-0.4-1.1,0.3c0.3,0.8,0.6,1.7,0.8,2.5c0.2,0.7,1.3,0.4,1.1-0.3
		C35.9,6.1,35.6,5.3,35.4,4.5z"/>
</g>
</svg>
